<?xml version="1.0" standalone="no"?><!DOCTYPE svg PUBLIC "-//W3C//DTD SVG 1.1//EN" "http://www.w3.org/Graphics/SVG/1.1/DTD/svg11.dtd"><svg t="1582093634973" class="icon" viewBox="0 0 1024 1024" version="1.1" xmlns="http://www.w3.org/2000/svg" p-id="905" xmlns:xlink="http://www.w3.org/1999/xlink" width="200" height="200"><defs><style type="text/css"></style></defs><path d="M983.8 312.69999999C958 251.69999999 921 197 874 150c-47-47-101.70000001-84-162.70000001-109.70000001C648.2 13.49999999 581.10000001 0 512 0S375.8 13.49999999 312.69999999 40.29999999C251.69999999 66 197 103 150 150c-47 47-84 101.70000001-109.70000001 162.70000001C13.49999999 375.8 0 442.89999999 0 512s13.50000001 136.2 40.30000001 199.30000001C66 772.30000001 103 827 150 874c47 47 101.8 83.90000001 162.70000001 109.70000001 63.10000001 26.70000001 130.2 40.30000001 199.29999999 40.29999999s136.2-13.50000001 199.30000001-40.30000001C772.30000001 958 827 921 874 874c47-47 83.90000001-101.8 109.70000001-162.70000001 26.70000001-63.10000001 40.30000001-130.2 40.29999999-199.29999999s-13.50000001-136.2-40.2-199.30000001zM692 548H548v144c0 19.90000001-16.10000001 36-36 36s-36-16.10000001-36-36V548H332c-19.90000001 0-36-16.10000001-36-36s16.10000001-36 36-36h144V332c0-19.90000001 16.10000001-36 36-36s36 16.10000001 36 36v144h144c19.90000001 0 36 16.10000001 36 36s-16.10000001 36-36 36z" p-id="906"></path></svg>