<?xml version="1.0" standalone="no"?><!DOCTYPE svg PUBLIC "-//W3C//DTD SVG 1.1//EN" "http://www.w3.org/Graphics/SVG/1.1/DTD/svg11.dtd"><svg t="1582041459793" class="icon" viewBox="0 0 1024 1024" version="1.1" xmlns="http://www.w3.org/2000/svg" p-id="994" xmlns:xlink="http://www.w3.org/1999/xlink" width="200" height="200"><defs><style type="text/css"></style></defs><path d="M813.8375 256.0625L767.9375 256.0625 767.9375 210.14375029C767.9375 128.44999971 701.50625 62 619.79374971 62L210.14375029 62C128.44999971 62 62 128.44999971 62 210.14375029L62 619.81250029c0 81.65625029 66.44999971 148.12499971 148.14375029 148.12499971l45.9 0L256.04375029 813.87500029c0 81.65625029 66.44999971 148.12499971 148.1437503 148.12499971L813.87500029 962c81.65625029 0 148.12499971-66.46875029 148.08750029-148.12499971L961.96249971 404.20625029C961.96249971 322.51249971 895.49375029 256.0625 813.8375 256.0625zM99.55625029 619.81250029L99.55625029 210.14375029c0-60.975 49.6125-110.5875 110.5875-110.5875l409.65000029 0c60.975 0 110.56875029 49.63124971 110.5687503 110.5875L730.3625 619.81250029c0 60.95625029-49.59375029 110.54999971-110.56875029 110.54999971L210.14375029 730.3625C149.16875029 730.3625 99.55625029 680.78750029 99.55625029 619.81250029zM924.40625029 813.87500029c0 60.975-49.6125 110.56875029-110.56875029 110.56875029L404.16875 924.44374971c-60.975 0-110.5875-49.6125-110.5875-110.56875029L293.58125 767.9375l326.21249971 0c81.71250029 0 148.14375029-66.46875029 148.14375029-148.12499971L767.9375 293.59999971l45.88125029 0c60.975 0 110.56875029 49.6125 110.56875029 110.5875L924.38749971 813.87500029z" p-id="995"></path></svg>