<?xml version="1.0" standalone="no"?><!DOCTYPE svg PUBLIC "-//W3C//DTD SVG 1.1//EN" "http://www.w3.org/Graphics/SVG/1.1/DTD/svg11.dtd"><svg t="1582369134970" class="icon" viewBox="0 0 1664 1024" version="1.1" xmlns="http://www.w3.org/2000/svg" p-id="1206" xmlns:xlink="http://www.w3.org/1999/xlink" width="325" height="200"><defs><style type="text/css"></style></defs><path d="M830.41436465-246.08394643c-418.93625657 0-758.26907069 339.51793839-758.26907072 758.26907072 0 418.75113232 339.51793839 758.26907069 758.26907072 758.26907069 418.75113232 0 758.26907069-339.51793839 758.26907073-758.26907069 0-418.75113232-339.51793839-758.26907069-758.26907073-758.26907072m500.02069333 523.34635326l-570.92329441 570.92329445c-13.88432135 13.88432135-32.21162557 20.91904417-50.53892976 20.91904419-18.32730419 0-36.65460837-6.84959852-50.53892979-20.91904419L330.39367127 519.77521995c-27.95376698-27.95376698-27.95376698-73.12409252-1e-8-100.89273524 27.95376698-27.95376698 73.12409252-27.95376698 100.89273527 0l277.68642728 277.87155158L1229.35719847 176.36967157c27.95376698-27.95376698 73.12409252-27.95376698 100.89273523 0 27.95376698 27.76864271 27.95376698 72.93896822 0.18512428 100.89273526" fill="#83CDD9" p-id="1207"></path></svg>