<?xml version="1.0" standalone="no"?><!DOCTYPE svg PUBLIC "-//W3C//DTD SVG 1.1//EN" "http://www.w3.org/Graphics/SVG/1.1/DTD/svg11.dtd"><svg t="1582923602884" class="icon" viewBox="0 0 1024 1024" version="1.1" xmlns="http://www.w3.org/2000/svg" p-id="1190" xmlns:xlink="http://www.w3.org/1999/xlink" width="200" height="200"><defs><style type="text/css"></style></defs><path d="M936.5 304.64c-114.3-198-368.34-266.04-566.34-151.68C277.52 206.42 210.74 291.8 180.5 393.86L66.62 393.86C47.48 393.86 32 409.4 32 428.48c0 19.14 15.48 34.68 34.62 34.68l327.78 0c19.14 0 34.62-15.48 34.62-34.68 0-19.14-15.48-34.62-34.62-34.62L262.76 393.86c27.42-73.14 77.4-134.7 145.92-174.24 161.28-93.12 368.16-37.74 461.28 123.54 93.18 161.28 37.62 368.22-123.66 461.34-161.28 93.06-368.1 37.62-461.22-123.66l-0.18-0.36 102.36 27.54c20.64 5.46 41.64-6.72 47.16-27.18 5.4-20.64-6.72-41.7-27.24-47.22L215.06 582.2c-9.96-2.58-20.4-1.26-29.22 3.78-8.76 5.1-15.3 13.56-17.94 23.4l-51.42 192.06c-5.52 20.58 6.6 41.58 27.18 47.22 20.58 5.4 41.64-6.78 47.16-27.3l27.42-102.42 0.18 0.36c114.3 198 368.34 266.1 566.34 151.74C982.76 756.68 1050.8 502.64 936.5 304.64z" p-id="1191"></path></svg>