<?xml version="1.0" standalone="no"?><!DOCTYPE svg PUBLIC "-//W3C//DTD SVG 1.1//EN" "http://www.w3.org/Graphics/SVG/1.1/DTD/svg11.dtd"><svg t="1582369130043" class="icon" viewBox="0 0 1117 1024" version="1.1" xmlns="http://www.w3.org/2000/svg" p-id="1070" xmlns:xlink="http://www.w3.org/1999/xlink" width="218.1640625" height="200"><defs><style type="text/css"></style></defs><path d="M351.00081219 96.12673438m46.84707562-1e-8l634.99546969 0q46.84707563 0 46.84707562 46.84707564l0-0.12799782q0 46.84707563-46.84707562 46.84707562l-634.99546969 0q-46.84707563 0-46.84707562-46.84707562l0 0.12799782q0-46.84707563 46.84707562-46.84707564Z" fill="#4D4D4D" p-id="1071"></path><path d="M351.00081219 477.17521531m46.84707562 0l634.99546969 0q46.84707563 0 46.84707562 46.84707563l0-0.12799781q0 46.84707563-46.84707562 46.84707562l-634.99546969 0q-46.84707563 0-46.84707562-46.84707562l0 0.12799781q0-46.84707563 46.84707562-46.84707563Z" fill="#4D4D4D" p-id="1072"></path><path d="M351.00081219 858.35169312m46.84707562 1e-8l634.99546969 0q46.84707563 0 46.84707562 46.84707562l0-0.12799781q0 46.84707563-46.84707562 46.84707562l-634.99546969 0q-46.84707563 0-46.84707562-46.84707562l0 0.12799781q0-46.84707563 46.84707562-46.84707562Z" fill="#4D4D4D" p-id="1073"></path><path d="M314.39353438 41.98380313A33.79133344 33.79133344 0 0 0 290.45800719 32a33.66333563 33.66333563 0 0 0-23.93552813 9.98380311L147.35683062 161.40544625 89.88596469 103.42259094a33.79133344 33.79133344 0 0 0-23.93552719-9.98380313A33.91933031 33.91933031 0 0 0 42.01490938 151.29364625l81.66238875 82.04638031A33.53533781 33.53533781 0 0 0 147.35683062 243.19583281a33.02334844 33.02334844 0 0 0 23.80753032-9.98380312L314.39353438 89.72686062a34.04732812 34.04732812 0 0 0-1e-8-47.74305749zM314.39353438 428.79216969a33.66333563 33.66333563 0 0 0-23.93552719-9.85580532 33.53533781 33.53533781 0 0 0-23.93552813 9.85580532L147.35683062 548.08581594l-57.47086593-57.98285625A33.79133344 33.79133344 0 0 0 65.9504375 479.99115969a33.91933031 33.91933031 0 0 0-23.93552813 57.98285531l81.66238876 81.91838438a33.53533781 33.53533781 0 0 0 47.7430575-1e-8l142.97317875-143.48516906a34.17532594 34.17532594 0 0 0 0-47.61506062zM314.39353438 790.76902719a33.79133344 33.79133344 0 0 0-23.93552719-9.98380313 33.66333563 33.66333563 0 0 0-23.93552813 9.98380313L147.35683062 910.19067031l-57.47086593-57.98285531a33.66333563 33.66333563 0 0 0-23.93552719-9.85580625 33.53533781 33.53533781 0 0 0-23.93552812 9.85580625 33.91933031 33.91933031 0 0 0 0 47.87105531l81.66238875 82.04638032a33.79133344 33.79133344 0 0 0 47.7430575 0L314.39353438 838.38408781a34.17532594 34.17532594 0 0 0-1e-8-47.61506062z" fill="#4D4D4D" p-id="1074"></path></svg>