<?xml version="1.0" standalone="no"?><!DOCTYPE svg PUBLIC "-//W3C//DTD SVG 1.1//EN" "http://www.w3.org/Graphics/SVG/1.1/DTD/svg11.dtd"><svg t="1582041464514" class="icon" viewBox="0 0 1024 1024" version="1.1" xmlns="http://www.w3.org/2000/svg" p-id="1116" xmlns:xlink="http://www.w3.org/1999/xlink" width="200" height="200"><defs><style type="text/css"></style></defs><path d="M395.49155555 144.97185185C543.06891852 144.97185185 667.34459259 269.24752592 667.34459259 416.82488888S543.06891852 688.67792592 395.49155555 688.67792592 123.63851852 564.40225185 123.63851852 416.82488888 247.91419259 144.97185185 395.49155555 144.97185185M395.49155555 67.29955555C201.31081482 67.29955555 45.96622222 222.64414815 45.96622222 416.82488888S201.31081482 766.35022222 395.49155555 766.35022222 745.01688889 611.00562963 745.01688889 416.82488888 589.6722963 67.29955555 395.49155555 67.29955555L395.49155555 67.29955555z" p-id="1117"></path><path d="M900.36148148 960.53096296c-7.76722963 0-23.30168889 0-31.06891851-7.76722963l-233.01688889-233.01688889c-15.53445925-15.53445925-15.53445925-38.83614815 0-54.37060741s38.83614815-15.53445925 54.3706074 0l233.01688889 233.01688889c15.53445925 15.53445925 15.53445925 38.83614815 0 54.37060741C923.66317037 960.53096296 908.12871111 960.53096296 900.36148148 960.53096296z" p-id="1118"></path></svg>