<?xml version="1.0" standalone="no"?><!DOCTYPE svg PUBLIC "-//W3C//DTD SVG 1.1//EN" "http://www.w3.org/Graphics/SVG/1.1/DTD/svg11.dtd"><svg t="1582041454705" class="icon" viewBox="0 0 1024 1024" version="1.1" xmlns="http://www.w3.org/2000/svg" p-id="875" xmlns:xlink="http://www.w3.org/1999/xlink" width="200" height="200"><defs><style type="text/css"></style></defs><path d="M266.24 967.11111111H65.99111111c-5.00622222 0-9.10222222-4.096-9.10222222-9.10222222V521.10222222c0-5.00622222 4.096-9.10222222 9.10222222-9.10222222h200.24888889c5.00622222 0 9.10222222 4.096 9.10222222 9.10222222v436.90666667c0 5.00622222-4.096 9.10222222-9.10222222 9.10222222zM612.12444445 967.11111111H411.87555555c-5.00622222 0-9.10222222-4.096-9.10222222-9.10222222V67.12888889c0-5.00622222 4.096-9.10222222 9.10222222-9.10222222h200.2488889c5.00622222 0 9.10222222 4.096 9.10222222 9.10222222v890.88c0 5.00622222-4.096 9.10222222-9.10222222 9.10222222zM958.00888889 967.11111111H757.76c-5.00622222 0-9.10222222-4.096-9.10222222-9.10222222V248.03555555c0-5.00622222 4.096-9.10222222 9.10222222-9.10222222h200.24888889c5.00622222 0 9.10222222 4.096 9.10222222 9.10222222v709.97333334c0 5.00622222-4.096 9.10222222-9.10222222 9.10222222z" p-id="876"></path></svg>