<?xml version="1.0" standalone="no"?><!DOCTYPE svg PUBLIC "-//W3C//DTD SVG 1.1//EN" "http://www.w3.org/Graphics/SVG/1.1/DTD/svg11.dtd"><svg t="1582170538576" class="icon" viewBox="0 0 1024 1024" version="1.1" xmlns="http://www.w3.org/2000/svg" p-id="1007" xmlns:xlink="http://www.w3.org/1999/xlink" width="200" height="200"><defs><style type="text/css"></style></defs><path d="M285.73894201 763.15096064l591.43147292-591.43147293c16.35622115-16.35622115 43.14249671-16.35622115 59.49871673 0 16.35622115 16.35622115 16.35622115 43.14249671 0 59.49871674l-621.06230784 621.06230784c-16.35622115 16.83031495-43.14249671 16.59326805-59.73576476 0.23704689l-168.54019072-168.54019072c-16.35622115-16.35622115-16.35622115-43.14249671 0-59.49871787 16.35622115-16.35622115 43.14249671-16.35622115 59.49871673 0l138.90935694 138.67231005z" fill="#333333" p-id="1008"></path><path d="M285.02780131 864.84398649c-10.66710016-0.2370469-21.09715456-4.26684075-29.15674225-12.32642731l-168.54019072-168.54019072c-16.35622115-16.35622115-16.35622115-43.14249671 0-59.49871787 16.35622115-16.35622115 43.14249671-16.35622115 59.49871673 0l138.19821624 138.19821626v102.16711964z" fill="#333333" p-id="1009"></path></svg>